<svg version="1.1" id="Layer_1" xmlns="http://www.w3.org/2000/svg" x="0" y="0" viewBox="0 0 153 42" style="enable-background:new 0 0 153 42" xml:space="preserve"><style>.st0{fill:#ff8d1a}.st1{fill:#00b5ce}</style><path class="st0" d="M138 40.9h-1.9c-.6 0-1.2-.1-1.8-.4-1.1-.5-2.1-1.4-2.6-2.6-.2-.6-.4-1.2-.4-1.8 0-.4.2-.8.4-1 .3-.3.6-.4 1-.4.2 0 .4 0 .6.1.2.1.3.2.5.3.1.1.2.3.3.5.1.2.1.4.1.6 0 .2 0 .5.1.7.1.2.2.4.4.6.2.2.4.3.6.4.2.1.5.1.7.1h1.9c.2 0 .5 0 .7-.1.2-.1.4-.2.6-.4.2-.2.3-.4.4-.6.1-.2.1-.5.1-.7v-9.8c0-.4.1-.8.4-1 .1-.1.3-.3.5-.3.2-.1.4-.1.6-.1.2 0 .4 0 .6.1.2.1.3.2.5.3.1.1.2.3.3.5.1.2.1.4.1.6v9.9c0 .6-.1 1.2-.4 1.8-.2.6-.6.9-1 1.3s-1 .8-1.5 1.1c-.5.2-1.2.3-1.8.3zm7.9 0c-.4 0-.7-.1-1-.4-.3-.3-.4-.6-.4-1v-6.2c0-.5.1-1 .3-1.4.2-.5.5-.9.8-1.2.7-.7 1.6-1.1 2.6-1.1h2.2c.2 0 .4 0 .5.1.2.1.3.2.5.3.1.1.2.3.3.4.1.2.1.4.1.5 0 .2 0 .4-.1.5-.1.2-.2.3-.3.5-.3.3-.6.4-1 .4h-2.2c-.1 0-.2 0-.3.1-.1 0-.2.1-.3.2-.1.1-.2.2-.2.3 0 .1-.1.2-.1.3v6.2c0 .2 0 .4-.1.5-.1.2-.2.3-.3.5-.1.1-.3.2-.5.3-.1.2-.3.2-.5.2z"/><path class="st1" d="M54.2 40.9h-.7c-.3 0-.6-.1-.9-.1-.3-.1-.6-.2-.8-.3-.5-.2-.9-.5-1.3-.9-.2.1-.3.3-.5.4-.3.2-.5.3-.8.5-.6.3-1.3.4-1.9.4h-.5c-.6 0-1.2-.1-1.8-.4-1.1-.5-2.1-1.4-2.6-2.6-.2-.6-.4-1.2-.4-1.8v-9.8c0-.8.7-1.5 1.5-1.5.2 0 .4 0 .6.1.2.1.3.2.5.3.3.3.4.6.4 1V36c0 .2 0 .5.1.7.2.4.5.8 1 1 .2.1.5.1.7.1h.5c.2 0 .5 0 .7-.1s.4-.2.6-.4c.2-.2.3-.4.4-.6.1-.2.1-.5.1-.7v-9.8c0-.4.2-.8.4-1 .1-.1.3-.3.5-.3.2-.1.4-.1.6-.1.4 0 .8.2 1 .4.3.3.4.6.4 1V36c0 .2 0 .5.1.7.1.2.2.4.4.6.2.2.4.3.6.4.2.1.4.1.7.1h.5c.2 0 .5 0 .7-.1.2-.1.4-.2.6-.4.2-.2.3-.4.4-.6.1-.2.2-.5.2-.7v-9.8c0-.4.2-.8.4-1 .3-.3.6-.4 1-.4s.8.2 1 .4c.3.3.4.6.4 1V36c0 .6-.1 1.2-.4 1.8-.2.6-.6 1.1-1 1.5-.4.4-1 .8-1.5 1.1-.7.4-1.3.5-1.9.5zm15.2 0c-.2 0-.4 0-.5-.1-.2-.1-.3-.2-.5-.3-.1-.1-.2-.3-.3-.5-.1-.2-.1-.4-.1-.6v-6.1c0-.3-.1-.5-.3-.7-.1-.1-.2-.2-.3-.2-.1 0-.2-.1-.4-.1h-2.5c-.1 0-.3 0-.4.1-.1 0-.2.1-.3.2-.1.1-.2.2-.2.3 0 .1-.1.2-.1.4v6.1c0 .2 0 .4-.1.5-.1.2-.2.3-.3.5-.1.1-.3.2-.5.3-.2.1-.4.1-.5.1-.2 0-.4 0-.5-.1-.2-.1-.3-.2-.5-.3-.1-.1-.2-.3-.3-.5-.1-.2-.1-.4-.1-.5V26.3c0-.2 0-.4.1-.5.1-.2.2-.3.3-.5.1-.1.3-.2.5-.3.2-.1.4-.1.5-.1.2 0 .4 0 .5.1.2.1.3.2.5.3.3.3.4.6.4 1v3.3c.3-.1.6-.1.9-.1H67c.5 0 1 .1 1.5.3.5.2.9.5 1.2.8.3.3.6.8.8 1.2.2.5.3 1 .3 1.5v6.1c0 .4-.1.7-.4 1-.1.1-.3.2-.5.3-.1.1-.3.2-.5.2zm4.6 0c-.4 0-.7-.1-1-.4-.3-.3-.4-.6-.4-1v-9.2c0-.4.1-.7.4-1 .3-.3.6-.4 1-.4.2 0 .4 0 .5.1s.3.2.5.3c.3.3.4.6.4 1v9.2c0 .4-.1.7-.4 1-.2.2-.6.4-1 .4zm0-12.8c-.4 0-.8-.2-1.1-.4-.3-.3-.4-.7-.4-1.1 0-.4.2-.8.4-1.1.3-.3.7-.5 1.1-.5.2 0 .4 0 .6.1.6.2 1 .8 1 1.5 0 .2 0 .4-.1.6-.1.2-.2.4-.4.5-.1.1-.3.3-.5.3-.1.1-.3.1-.6.1zm8.9 12.8h-.3c-.5 0-1-.1-1.5-.3-.4-.2-.8-.5-1.2-.8-.3-.3-.6-.7-.8-1.2-.2-.5-.3-1-.3-1.5v-6.6h-1.1c-.4 0-.7-.1-1-.4-.3-.3-.4-.6-.4-1s.1-.7.4-1c.1-.1.3-.2.5-.3.2-.1.4-.1.5-.1h1.1v-1.4c0-.2 0-.4.1-.5.1-.2.2-.3.3-.5.1-.1.3-.2.5-.3.2-.1.4-.1.5-.1.8 0 1.4.6 1.4 1.4v1.3h2.2c.2 0 .4 0 .5.1.2.1.3.2.4.3.3.3.4.6.4 1s-.1.7-.4 1c-.3.3-.6.4-1 .4h-2.2V37c0 .2.1.5.3.7.1.1.2.2.3.2.1 0 .2.1.4.1h.3c.3 0 .6.1.8.2.2.2.4.4.5.6.1.3.1.6.1.8-.1.3-.2.5-.4.7-.2.5-.5.6-.9.6zm10.4 0h-4.5c-.5 0-1-.1-1.4-.3-.9-.4-1.6-1.1-2-2-.2-.5-.3-1-.3-1.5v-3.9c0-.5.1-1 .3-1.4.2-.4.5-.8.8-1.2.3-.3.7-.6 1.2-.8.5-.2.9-.3 1.4-.3h2.3c.5 0 1 .1 1.4.3.4.2.8.5 1.2.8.3.3.6.7.8 1.2.2.5.3.9.3 1.4v2c0 .2 0 .4-.1.5-.1.3-.4.6-.8.8-.2.1-.4.1-.5.1h-5.5v.5c0 .5.4.9.9.9h4.6c.4 0 .7.1 1 .4.1.1.2.3.3.5.1.2.1.4.1.5 0 .2 0 .4-.1.5-.1.2-.2.3-.3.5-.3.3-.7.5-1.1.5zm-5.4-7.1H92v-.6c0-.3-.1-1-.3-1.2-.2-.2-.4-.3-.6-.3h-2.3c-.2 0-.5.1-.7.3-.2.2-.3.9-.3 1.2l.1.6zm19.6 7.1c-.2 0-.4 0-.6-.1-.2-.1-.3-.2-.5-.3-.1-.1-.3-.3-.3-.5-.1-.2-.1-.4-.1-.6v-5.1h-6.7v5c0 .2 0 .4-.1.6-.1.2-.2.3-.3.5-.1.1-.3.3-.5.3-.2.1-.4.1-.6.1-.4 0-.8-.2-1-.4-.3-.3-.4-.6-.4-1v-13c0-.4.2-.8.4-1 .3-.3.6-.4 1-.4.2 0 .4 0 .6.1.2.1.3.2.5.3.1.1.2.3.3.5.1.2.1.4.1.6v5h6.7v-5c0-.2 0-.4.1-.6.1-.2.2-.3.3-.5.1-.1.3-.3.5-.3.2-.1.4-.1.6-.1.4 0 .8.2 1 .4.3.3.4.6.4 1v13c.1.8-.5 1.5-1.4 1.5zm11.4 0H116c-1 0-2.1 0-3-.4-2-.8-2.8-3.2-1.6-5.1.4-.7 1.1-1.2 1.9-1.5 1.3-.4 2.8 0 4.2-.2 0-.4 0-.9-.3-1.2-.3-.2-.6-.2-1-.2h-2.9c-.4 0-.9 0-1.3-.2-.2-.1-.4-.3-.5-.5-.1-.2-.2-.4-.2-.6 0-.2 0-.5.1-.7.1-.2.2-.4.4-.5.5-.3 1.1-.3 1.7-.3h2.8c.8 0 1.6.1 2.3.6.8.5 1.3 1.3 1.5 2.2.2.9.2 1.8.2 2.7v3.7c0 .7-.1 1.4-.6 1.8-.2.3-.5.4-.8.4zm-5.1-3.1c.2.2.4.3.7.3h3v-1.9h-3c-.1 0-.2 0-.4.1-.1 0-.2.1-.3.2-.2.2-.3.5-.3.7 0 .2.1.4.3.6zm13.3 3.1h-.3c-.5 0-1-.1-1.5-.3-.4-.2-.8-.5-1.2-.8-.3-.3-.6-.7-.8-1.2-.2-.5-.3-1-.3-1.5v-6.6h-1.1c-.4 0-.7-.1-1-.4-.3-.3-.4-.6-.4-1s.1-.7.4-1c.1-.1.3-.2.5-.3.2-.1.4-.1.5-.1h1.1v-1.4c0-.2 0-.4.1-.5.1-.2.2-.3.3-.5.1-.1.3-.2.5-.3.2-.1.4-.1.5-.1.4 0 .7.2 1 .4.3.3.4.6.4 1v1.3h2.1c.2 0 .4 0 .5.1.2.1.3.2.4.3.1.1.2.3.3.5.1.2.1.4.1.5 0 .2 0 .4-.1.5-.1.2-.2.3-.3.5-.3.3-.6.4-1 .4h-2.1V37c0 .1 0 .2.1.4 0 .1.1.2.2.3.1.1.2.2.3.2.1 0 .2.1.4.1h.3c.3 0 .6.1.8.2.2.2.4.4.5.6.1.3.1.6.1.8-.1.3-.2.5-.4.7-.1.4-.5.6-.9.6z"/><path class="st0" d="M36.5 12.3c-1.8-.8-3.9-.1-4.8 1.7L21.6 35.8c-.2.4-.3.9-.3 1.4s.1.9.2 1.4.4.9.7 1.2.7.6 1.1.8c.4.2.9.3 1.4.3.5 0 .9-.1 1.4-.2.9-.3 1.6-1 2-1.9l10.1-21.7c.9-1.8.1-3.9-1.7-4.8z"/><path d="m40.7 1.2 1.7-.6c.2-.1.4-.1.6 0 .2.1.3.3.3.5l.4 1.7c.2.9.1 1.8-.4 2.6l-1 1.9.1.2c.4.6.5 1.4.1 2l-.9 1.4-.1.1h-.4c-.1 0-.1-.1-.1-.1-.3-.5-.8-.9-1.2-1.3l-1.2 2.2c0 .1-.1.2-.2.2h-.3c-.1 0-.2-.1-.2-.2s0-.2.1-.3l.9-1.7c-.1-.1-.2-.2-.3-.2l-.6 1.1s0 .1-.1.1c-.1.1-.2.1-.3.1h-.1c-.1-.1-.2-.1-.2-.2s0-.2.1-.3l.6-1.1-.4-.1-.9 1.6c0 .1-.1.2-.2.2h-.2c-.1 0-.2-.1-.2-.2s0-.2.1-.3l1.2-2.2c-.6-.2-1.1-.3-1.7-.3-.1 0-.1 0-.2-.1l-.1-.1v-.4l.7-1.6c.1-.3.4-.6.7-.8s.7-.3 1-.3h.2l1-1.9c.1-.7.8-1.3 1.7-1.6zm-.5 4.3c.2.1.4.1.6.1s.4-.1.6-.2c.3-.3.5-.7.3-1.1-.1-.4-.5-.7-.9-.7-.2 0-.4 0-.6.1s-.3.2-.4.4c-.1.2-.2.5-.1.8.1.3.3.5.5.6z" style="fill-rule:evenodd;clip-rule:evenodd;fill:#ff8d1a"/><path class="st1" d="M16.3 18.9c1.8-.8 3.9-.1 4.8 1.7l7.1 15.2c.4.9.4 1.9.1 2.8-.3.9-1 1.6-1.9 2-1.8.8-3.9.1-4.8-1.7l-7.1-15.2c-.8-1.8 0-4 1.8-4.8z"/><path class="st0" d="M19.3 18.9c-.4-.2-.9-.3-1.4-.3-1 0-1.9.3-2.6.9-.3.3-.6.7-.8 1.1L7.4 35.8c-.4.9-.4 1.9-.1 2.8.2.4.4.8.7 1.2s.7.6 1.1.8c1.8.8 3.9.1 4.8-1.7L21 23.7c.9-1.8.1-4-1.7-4.8z"/><path class="st1" d="M2.1 18.9c.9-.4 1.9-.4 2.8-.1.9.3 1.6 1 2 1.9L14 35.8c.2.4.3.9.3 1.4 0 .5-.1.9-.2 1.4-.2.4-.4.9-.7 1.2-.3.3-.7.6-1.1.8-1.8.8-3.9.1-4.8-1.7L.3 23.7c-.4-.9-.4-1.9-.1-2.8.3-.9 1-1.6 1.9-2z"/></svg>